<svg width="64" height="64" viewBox="0 0 64 64" fill="none" xmlns="http://www.w3.org/2000/svg">
<g clip-path="url(#clip0_24504_577)">
<path d="M61.0058 6.76895C60.1888 5.94949 58.9953 5.92596 57.6353 5.89914C57.4812 5.8961 57.325 5.89302 57.1669 5.88873C57.0466 5.8851 56.9137 5.8865 56.7749 5.88796C56.2234 5.89377 55.5782 5.90055 55.2531 5.597C54.8763 5.24507 54.9121 4.56494 54.9416 4.00348C54.9509 3.82606 54.9596 3.66038 54.9545 3.52076C54.9015 2.21648 54.791 0.830986 54.0224 0.367818C53.4427 0.0203111 51.7086 0.0684535 50.1094 0.112852C49.591 0.127245 49.0867 0.141245 48.6406 0.141245H14.6005C13.9151 0.141245 13.1967 0.104691 12.4908 0.0687742C11.1153 -0.00121078 9.78744 -0.068774 8.84448 0.141245C7.47599 0.447531 7.38333 2.057 7.29607 3.57256L7.29137 3.6541C7.21811 4.90525 6.74473 5.87069 5.17584 5.77344C3.35109 5.66216 1.53537 5.62707 0.710347 6.7088C-0.264025 7.98866 -0.0630712 9.3284 0.296867 11.7281C0.348282 12.0709 0.402941 12.4353 0.457882 12.8242H61.5321C61.567 12.5399 61.6042 12.2593 61.6407 11.9832C61.9267 9.82421 62.1759 7.94313 61.0058 6.76895Z" fill="#8047F8"/>
<path fill-rule="evenodd" clip-rule="evenodd" d="M5.21416 15.2042C6.16802 23.6601 7.11146 32.1257 8.05493 40.5914L8.0555 40.5966C8.56777 45.1932 9.08005 49.7898 9.59399 54.385H11.5427C11.6755 55.1043 11.8275 55.9923 11.9876 56.9285C12.3128 58.829 12.6721 60.9285 12.9741 62.2187H13.1896C15.1746 61.743 28.8968 57.9012 28.9029 42.606C28.9004 42.5624 28.9026 42.5188 28.9095 42.4755H25.5194C25.3552 42.4745 25.1962 42.4386 25.0666 42.3733C24.937 42.3081 24.8442 42.2171 24.8023 42.1143C24.4719 41.5798 24.2055 41.0296 24.0055 40.4686C22.0111 41.2064 20.4274 42.333 19.4799 43.6878C18.5806 42.3002 18.4628 40.7521 19.1473 39.3141C19.8318 37.876 21.275 36.6394 23.2247 35.8203C23.2498 31.3571 25.8011 27.0548 30.3955 23.7276L30.4672 23.6863C30.6008 23.6107 30.7717 23.5686 30.949 23.5677C31.0516 23.5682 31.1528 23.5826 31.2464 23.6098C31.3411 23.6373 31.4258 23.6775 31.4951 23.7276C36.1432 27.0593 38.6809 31.403 38.6021 35.8926C40.5882 36.6888 42.0608 37.9245 42.7465 39.3704C43.4322 40.8163 43.2846 42.3741 42.331 43.7549C41.3887 42.3979 39.8036 41.2704 37.8054 40.5357C37.6833 41.0794 37.4585 41.6113 37.1361 42.1195C37.0246 42.3362 36.8015 42.4755 36.5784 42.4755H32.963C32.9687 42.5014 32.9727 42.5275 32.975 42.5536L32.9764 42.5596V42.5723C32.9777 42.5948 32.9778 42.6173 32.9765 42.6399C33.026 58.3742 47.6156 61.9456 48.8455 62.2187H49.2661C49.3735 60.9795 49.7231 59.2694 50.0639 57.6022C50.2987 56.4534 50.5294 55.3249 50.6738 54.385H52.6451C53.276 48.5969 53.925 42.825 54.5739 37.0531L54.5743 37.0499L54.5745 37.0482C55.4046 29.6652 56.2347 22.282 57.0272 14.8644H5.34039C5.19162 14.8834 5.20176 15.0428 5.21416 15.2042ZM30.949 23.5677L30.9453 23.5677H30.9533L30.949 23.5677Z" fill="#8047F8"/>
<path d="M78.8693 9.40205C78.8693 7.31471 79.9671 5.69702 82.1629 4.54899C84.3985 3.37486 87.752 2.7878 92.2232 2.7878C95.1775 2.7878 97.6926 2.97044 99.7685 3.33573V8.73671C97.5329 8.29315 95.3172 8.07137 93.1215 8.07137C90.9657 8.07137 89.5684 8.24097 88.9297 8.58016C88.2909 8.89326 87.9715 9.36291 87.9715 9.98911V23.1393C87.9715 24.3917 89.4686 25.0179 92.4628 25.0179C95.4969 25.0179 97.992 24.8223 99.9482 24.4309V29.7145C97.7924 30.1058 95.1775 30.3015 92.1035 30.3015C87.6322 30.3015 84.2987 29.7275 82.103 28.5795C79.9472 27.4314 78.8693 25.8137 78.8693 23.7264V9.40205Z" fill="#403937"/>
<path d="M117.441 13.1201C117.441 12.1286 116.602 11.6329 114.926 11.6329C113.249 11.6329 112.41 12.1286 112.41 13.1201V24.0004C112.41 24.9919 113.249 25.4876 114.926 25.4876C116.602 25.4876 117.441 24.9919 117.441 24.0004V13.1201ZM103.548 12.9244C103.548 10.9415 104.486 9.40205 106.362 8.3062C108.278 7.18425 111.133 6.62328 114.926 6.62328C118.718 6.62328 121.553 7.18425 123.429 8.3062C125.345 9.40205 126.303 10.9415 126.303 12.9244V24.1961C126.303 26.179 125.345 27.7315 123.429 28.8534C121.553 29.9493 118.718 30.4972 114.926 30.4972C111.133 30.4972 108.278 29.9493 106.362 28.8534C104.486 27.7315 103.548 26.179 103.548 24.1961V12.9244Z" fill="#403937"/>
<path d="M132.124 6.7407C132.124 2.33119 135.677 0.126443 142.783 0.126443C143.701 0.126443 144.799 0.191672 146.077 0.322131V4.86209C145.438 4.80991 144.839 4.78382 144.28 4.78382C142.244 4.78382 141.226 5.41002 141.226 6.66242V7.01466H146.077V11.6329H141.226V30.1058H132.124V11.6329H128.71V7.01466H132.124V6.7407Z" fill="#403937"/>
<path d="M149.785 6.7407C149.785 2.33119 153.338 0.126443 160.444 0.126443C161.362 0.126443 162.46 0.191672 163.737 0.322131V4.86209C163.099 4.80991 162.5 4.78382 161.941 4.78382C159.905 4.78382 158.887 5.41002 158.887 6.66242V7.01466H163.737V11.6329H158.887V30.1058H149.785V11.6329H146.371V7.01466H149.785V6.7407Z" fill="#403937"/>
<path d="M165.829 23.5307V12.9244C165.829 10.9415 166.767 9.40205 168.643 8.3062C170.519 7.18425 173.354 6.62328 177.147 6.62328C184.452 6.62328 188.105 8.72366 188.105 12.9244V20.8694H174.512V23.0611C174.512 23.8438 174.831 24.4048 175.47 24.744C176.148 25.0571 177.606 25.2136 179.841 25.2136C182.117 25.2136 184.592 24.9527 187.267 24.4309V29.597C184.472 30.0928 181.478 30.3407 178.284 30.3407C169.981 30.3407 165.829 28.0707 165.829 23.5307ZM174.512 16.3685H179.781V13.0027C179.781 12.0112 178.903 11.5155 177.147 11.5155C175.39 11.5155 174.512 12.0112 174.512 13.0027V16.3685Z" fill="#403937"/>
<path d="M191.677 23.5307V12.9244C191.677 10.9415 192.615 9.40205 194.491 8.3062C196.368 7.18425 199.202 6.62328 202.995 6.62328C210.3 6.62328 213.953 8.72366 213.953 12.9244V20.8694H200.36V23.0611C200.36 23.8438 200.679 24.4048 201.318 24.744C201.997 25.0571 203.454 25.2136 205.689 25.2136C207.965 25.2136 210.44 24.9527 213.115 24.4309V29.597C210.32 30.0928 207.326 30.3407 204.132 30.3407C195.829 30.3407 191.677 28.0707 191.677 23.5307ZM200.36 16.3685H205.629V13.0027C205.629 12.0112 204.751 11.5155 202.995 11.5155C201.238 11.5155 200.36 12.0112 200.36 13.0027V16.3685Z" fill="#403937"/>
<path d="M93.2827 44.5165C93.2827 42.5897 91.7268 41.6263 88.6149 41.6263H83.6523V59.1921H88.6149C91.7268 59.1921 93.2827 58.2073 93.2827 56.2377V44.5165ZM80.1637 39.6353H88.8114C91.432 39.6353 93.4137 40.0742 94.7568 40.952C96.0998 41.8297 96.7713 43.0072 96.7713 44.4844V56.3019C96.7713 57.8219 96.1162 59.0208 94.8059 59.8986C93.4956 60.7763 91.5302 61.2152 88.9097 61.2152H80.1637V39.6353Z" fill="#403937"/>
<path d="M102.512 56.5588V47.6314C102.512 46.1114 103.168 44.9018 104.478 44.0027C105.821 43.0821 107.835 42.6218 110.521 42.6218C113.207 42.6218 115.189 43.0821 116.467 44.0027C117.777 44.9018 118.432 46.1114 118.432 47.6314V53.2191H105.952V56.4625C105.952 57.4259 106.41 58.1431 107.328 58.614C108.245 59.085 109.67 59.3205 111.602 59.3205C113.535 59.3205 115.533 59.1278 117.597 58.7425V60.8619C115.959 61.2045 114.01 61.3758 111.75 61.3758C105.592 61.3758 102.512 59.7701 102.512 56.5588ZM105.952 51.3244H115.091V47.6314C115.091 45.619 113.568 44.6128 110.521 44.6128C107.475 44.6128 105.952 45.619 105.952 47.6314V51.3244Z" fill="#403937"/>
<path d="M124.404 38.0939H127.893V61.2152H124.404V38.0939Z" fill="#403937"/>
<path d="M136.393 40.8877C134.984 40.8877 134.28 40.3953 134.28 39.4105C134.28 38.4257 134.984 37.9333 136.393 37.9333C137.834 37.9333 138.554 38.4257 138.554 39.4105C138.554 40.3953 137.834 40.8877 136.393 40.8877ZM134.673 43.0714H138.161V61.2152H134.673V43.0714Z" fill="#403937"/>
<path d="M156.144 42.943H159.682L153.491 61.2152H148.577L142.386 42.943H145.973L148.675 51.3244L151.083 59.6095C152.066 56.0557 153.753 50.5002 156.144 42.943Z" fill="#403937"/>
<path d="M163.403 56.5588V47.6314C163.403 46.1114 164.058 44.9018 165.369 44.0027C166.712 43.0821 168.726 42.6218 171.412 42.6218C174.098 42.6218 176.08 43.0821 177.358 44.0027C178.668 44.9018 179.323 46.1114 179.323 47.6314V53.2191H166.843V56.4625C166.843 57.4259 167.301 58.1431 168.219 58.614C169.136 59.085 170.561 59.3205 172.493 59.3205C174.426 59.3205 176.424 59.1278 178.488 58.7425V60.8619C176.85 61.2045 174.901 61.3758 172.641 61.3758C166.482 61.3758 163.403 59.7701 163.403 56.5588ZM166.843 51.3244H175.982V47.6314C175.982 45.619 174.459 44.6128 171.412 44.6128C168.366 44.6128 166.843 45.619 166.843 47.6314V51.3244Z" fill="#403937"/>
<path d="M194.336 42.8466H195.564V45.0303H193.894C192.715 45.0303 191.65 45.2337 190.7 45.6404C190.405 45.7689 189.767 46.0579 188.784 46.5075V61.2152H185.295V42.943H188.636V44.3238C188.735 44.281 188.98 44.1632 189.373 43.9706C189.799 43.7779 190.045 43.6708 190.11 43.6494C190.209 43.6066 190.422 43.521 190.749 43.3925C191.11 43.2641 191.372 43.1892 191.535 43.1677C191.732 43.1249 191.994 43.0714 192.322 43.0072C192.813 42.9001 193.484 42.8466 194.336 42.8466Z" fill="#403937"/>
<path d="M210.511 42.943H214L206.335 66H202.994L204.517 61.2152H202.797L196.705 42.943H200.242L203.19 52.0309L205.352 59.6095C206.007 57.0833 206.728 54.5571 207.514 52.0309L210.511 42.943Z" fill="#403937"/>
</g>
<defs>
<clipPath id="clip0_24504_577">
<rect width="64" height="64" fill="white"/>
</clipPath>
</defs>
</svg>
