<svg width="126" height="40" viewBox="0 0 126 40" fill="none" xmlns="http://www.w3.org/2000/svg">
<path d="M35.9193 4.10239C35.4382 3.60575 34.7356 3.59149 33.9348 3.57523C33.8441 3.57339 33.7521 3.57153 33.659 3.56893C33.5882 3.56673 33.5099 3.56758 33.4282 3.56846C33.1035 3.57198 32.7236 3.57609 32.5322 3.39212C32.3104 3.17883 32.3314 2.76663 32.3488 2.42635C32.3543 2.31882 32.3594 2.21841 32.3564 2.1338C32.3252 1.34332 32.2601 0.503628 31.8076 0.22292C31.4663 0.0123098 30.4453 0.041487 29.5037 0.0683954C29.1984 0.0771184 28.9015 0.085603 28.6388 0.085603H8.59655C8.19301 0.085603 7.77001 0.0634489 7.35439 0.0416813C6.54453 -0.000733803 5.7627 -0.0416812 5.2075 0.085603C4.40175 0.271231 4.34719 1.24667 4.29582 2.16519L4.29305 2.21461C4.24992 2.97288 3.9712 3.55799 3.04746 3.49906C1.97307 3.43161 0.904003 3.41035 0.418242 4.06594C-0.155454 4.84161 -0.0371354 5.65358 0.174791 7.10792C0.205063 7.31567 0.237246 7.53652 0.269594 7.77225H36.2292C36.2497 7.59995 36.2716 7.42986 36.2931 7.26253C36.4615 5.95406 36.6083 4.81402 35.9193 4.10239Z" fill="#8047F8"/>
<path fill-rule="evenodd" clip-rule="evenodd" d="M3.07002 9.21467C3.63164 14.3395 4.18712 19.4701 4.74262 24.6009L4.74296 24.604C5.04458 27.3898 5.34619 30.1757 5.6488 32.9606H6.79618C6.87436 33.3965 6.96383 33.9347 7.05815 34.5021C7.24961 35.6539 7.46113 36.9264 7.63896 37.7083H7.76587C8.93457 37.42 17.014 35.0916 17.0176 25.8218C17.0161 25.7954 17.0174 25.7689 17.0215 25.7427H15.0254C14.9288 25.7421 14.8351 25.7203 14.7588 25.6808C14.6826 25.6413 14.6279 25.5861 14.6032 25.5238C14.4087 25.1999 14.2519 24.8664 14.1341 24.5264C12.9598 24.9736 12.0273 25.6564 11.4695 26.4775C10.94 25.6365 10.8706 24.6983 11.2737 23.8267C11.6767 22.9551 12.5264 22.2057 13.6744 21.7093C13.6891 19.0043 15.1913 16.3968 17.8964 14.3804L17.9386 14.3553C18.0173 14.3095 18.1179 14.284 18.2223 14.2834C18.2827 14.2838 18.3423 14.2925 18.3974 14.309C18.4532 14.3257 18.5031 14.35 18.5438 14.3804C21.2806 16.3996 22.7748 19.0321 22.7284 21.7531C23.8977 22.2356 24.7648 22.9845 25.1685 23.8608C25.5723 24.7371 25.4853 25.6813 24.9238 26.5181C24.369 25.6957 23.4358 25.0123 22.2592 24.5671C22.1874 24.8966 22.055 25.219 21.8652 25.527C21.7995 25.6583 21.6682 25.7427 21.5368 25.7427H19.4081C19.4115 25.7584 19.4138 25.7742 19.4152 25.7901L19.416 25.7937V25.8014C19.4168 25.815 19.4168 25.8287 19.4161 25.8424C19.4452 35.3783 28.0354 37.5428 28.7595 37.7083H29.0071C29.0704 36.9572 29.2762 35.9208 29.4769 34.9104C29.6151 34.2142 29.751 33.5302 29.836 32.9606H30.9966C31.3681 29.4527 31.7502 25.9546 32.1323 22.4564L32.1325 22.4545L32.1326 22.4535C32.6214 17.9789 33.1101 13.5042 33.5767 9.0087H3.14434C3.05675 9.02024 3.06272 9.11685 3.07002 9.21467ZM18.2223 14.2834L18.2201 14.2834H18.2248L18.2223 14.2834Z" fill="#8047F8"/>
<path d="M46.4371 5.69821C46.4371 4.43316 47.0835 3.45274 48.3763 2.75696C49.6926 2.04537 51.667 1.68958 54.2997 1.68958C56.0391 1.68958 57.5199 1.80027 58.7422 2.02165V5.29498C57.4259 5.02615 56.1213 4.89174 54.8285 4.89174C53.5592 4.89174 52.7365 4.99453 52.3605 5.2001C51.9844 5.38985 51.7963 5.67449 51.7963 6.05401V14.0238C51.7963 14.7829 52.6778 15.1624 54.4407 15.1624C56.2271 15.1624 57.6962 15.0438 58.848 14.8066V18.0088C57.5787 18.246 56.0391 18.3646 54.2291 18.3646C51.5965 18.3646 49.6338 18.0167 48.341 17.3209C47.0717 16.6251 46.4371 15.6447 46.4371 14.3796V5.69821Z" fill="#403937"/>
<path d="M69.1473 7.95159C69.1473 7.35069 68.6537 7.05024 67.6664 7.05024C66.6792 7.05024 66.1856 7.35069 66.1856 7.95159V14.5457C66.1856 15.1466 66.6792 15.447 67.6664 15.447C68.6537 15.447 69.1473 15.1466 69.1473 14.5457V7.95159ZM60.9673 7.83299C60.9673 6.63119 61.5197 5.69821 62.6245 5.03406C63.7528 4.35409 65.4334 4.01411 67.6664 4.01411C69.8995 4.01411 71.5684 4.35409 72.6731 5.03406C73.8014 5.69821 74.3655 6.63119 74.3655 7.83299V14.6643C74.3655 15.8661 73.8014 16.807 72.6731 17.4869C71.5684 18.1511 69.8995 18.4832 67.6664 18.4832C65.4334 18.4832 63.7528 18.1511 62.6245 17.4869C61.5197 16.807 60.9673 15.8661 60.9673 14.6643V7.83299Z" fill="#403937"/>
<path d="M77.7925 4.08527C77.7925 1.41284 79.8845 0.0766322 84.0685 0.0766322C84.6091 0.0766322 85.2555 0.116165 86.0077 0.195231V2.94672C85.6316 2.9151 85.279 2.89928 84.9499 2.89928C83.7511 2.89928 83.1517 3.2788 83.1517 4.03783V4.25131H86.0077V7.05024H83.1517V18.246H77.7925V7.05024H75.7827V4.25131H77.7925V4.08527Z" fill="#403937"/>
<path d="M88.1909 4.08527C88.1909 1.41284 90.2829 0.0766322 94.4669 0.0766322C95.0075 0.0766322 95.6539 0.116165 96.4061 0.195231V2.94672C96.03 2.9151 95.6774 2.89928 95.3484 2.89928C94.1496 2.89928 93.5502 3.2788 93.5502 4.03783V4.25131H96.4061V7.05024H93.5502V18.246H88.1909V7.05024H86.1812V4.25131H88.1909V4.08527Z" fill="#403937"/>
<path d="M97.6374 14.261V7.83299C97.6374 6.63119 98.1898 5.69821 99.2946 5.03406C100.399 4.35409 102.068 4.01411 104.301 4.01411C108.603 4.01411 110.754 5.28707 110.754 7.83299V12.6481H102.75V13.9764C102.75 14.4508 102.938 14.7908 103.314 14.9964C103.714 15.1861 104.572 15.281 105.888 15.281C107.228 15.281 108.685 15.1229 110.26 14.8066V17.9376C108.615 18.2381 106.852 18.3883 104.971 18.3883C100.082 18.3883 97.6374 17.0125 97.6374 14.261ZM102.75 9.92033H105.853V7.88043C105.853 7.27953 105.335 6.97908 104.301 6.97908C103.267 6.97908 102.75 7.27953 102.75 7.88043V9.92033Z" fill="#403937"/>
<path d="M112.856 14.261V7.83299C112.856 6.63119 113.409 5.69821 114.513 5.03406C115.618 4.35409 117.287 4.01411 119.52 4.01411C123.822 4.01411 125.972 5.28707 125.972 7.83299V12.6481H117.969V13.9764C117.969 14.4508 118.157 14.7908 118.533 14.9964C118.933 15.1861 119.79 15.281 121.107 15.281C122.447 15.281 123.904 15.1229 125.479 14.8066V17.9376C123.833 18.2381 122.071 18.3883 120.19 18.3883C115.301 18.3883 112.856 17.0125 112.856 14.261ZM117.969 9.92033H121.072V7.88043C121.072 7.27953 120.554 6.97908 119.52 6.97908C118.486 6.97908 117.969 7.27953 117.969 7.88043V9.92033Z" fill="#403937"/>
<path d="M54.9235 26.9797C54.9235 25.8119 54.0074 25.2281 52.1751 25.2281H49.2532V35.874H52.1751C54.0074 35.874 54.9235 35.2771 54.9235 34.0834V26.9797ZM47.1992 24.0214H52.2908C53.8338 24.0214 55.0006 24.2874 55.7914 24.8194C56.5821 25.3513 56.9775 26.065 56.9775 26.9602V34.1224C56.9775 35.0436 56.5918 35.7702 55.8203 36.3022C55.0488 36.8341 53.8916 37.1001 52.3487 37.1001H47.1992V24.0214Z" fill="#403937"/>
<path d="M60.3578 34.2781V28.8675C60.3578 27.9463 60.7435 27.2132 61.515 26.6683C62.3057 26.1104 63.4918 25.8314 65.0734 25.8314C66.6549 25.8314 67.8217 26.1104 68.5739 26.6683C69.3453 27.2132 69.7311 27.9463 69.7311 28.8675V32.254H62.3829V34.2197C62.3829 34.8036 62.6529 35.2382 63.1929 35.5237C63.7329 35.8091 64.5719 35.9518 65.7098 35.9518C66.8477 35.9518 68.0242 35.8351 69.2393 35.6015V36.886C68.2749 37.0936 67.1274 37.1974 65.7966 37.1974C62.1707 37.1974 60.3578 36.2243 60.3578 34.2781ZM62.3829 31.1057H67.7638V28.8675C67.7638 27.6479 66.867 27.0381 65.0734 27.0381C63.2797 27.0381 62.3829 27.6479 62.3829 28.8675V31.1057Z" fill="#403937"/>
<path d="M73.2474 23.0872H75.3014V37.1001H73.2474V23.0872Z" fill="#403937"/>
<path d="M80.3059 24.7804C79.4765 24.7804 79.0619 24.482 79.0619 23.8852C79.0619 23.2883 79.4765 22.9899 80.3059 22.9899C81.1545 22.9899 81.5788 23.2883 81.5788 23.8852C81.5788 24.482 81.1545 24.7804 80.3059 24.7804ZM79.2933 26.1039H81.3473V37.1001H79.2933V26.1039Z" fill="#403937"/>
<path d="M91.9352 26.026H94.0182L90.373 37.1001H87.48L83.8349 26.026H85.9467L87.5379 31.1057L88.9555 36.127C89.5341 33.9732 90.5273 30.6062 91.9352 26.026Z" fill="#403937"/>
<path d="M96.2094 34.2781V28.8675C96.2094 27.9463 96.5951 27.2132 97.3666 26.6683C98.1574 26.1104 99.3435 25.8314 100.925 25.8314C102.506 25.8314 103.673 26.1104 104.426 26.6683C105.197 27.2132 105.583 27.9463 105.583 28.8675V32.254H98.2345V34.2197C98.2345 34.8036 98.5045 35.2382 99.0445 35.5237C99.5846 35.8091 100.424 35.9518 101.561 35.9518C102.699 35.9518 103.876 35.8351 105.091 35.6015V36.886C104.127 37.0936 102.979 37.1974 101.648 37.1974C98.0223 37.1974 96.2094 36.2243 96.2094 34.2781ZM98.2345 31.1057H103.615V28.8675C103.615 27.6479 102.719 27.0381 100.925 27.0381C99.1313 27.0381 98.2345 27.6479 98.2345 28.8675V31.1057Z" fill="#403937"/>
<path d="M114.422 25.9676H115.145V27.2911H114.162C113.467 27.2911 112.841 27.4143 112.281 27.6609C112.108 27.7387 111.732 27.9139 111.153 28.1864V37.1001H109.099V26.026H111.066V26.8629C111.124 26.837 111.269 26.7656 111.5 26.6488C111.751 26.5321 111.896 26.4672 111.934 26.4542C111.992 26.4283 112.117 26.3764 112.31 26.2985C112.522 26.2207 112.677 26.1752 112.773 26.1623C112.889 26.1363 113.043 26.1039 113.236 26.065C113.525 26.0001 113.921 25.9676 114.422 25.9676Z" fill="#403937"/>
<path d="M123.946 26.026H126L121.487 40H119.52L120.417 37.1001H119.404L115.817 26.026H117.9L119.635 31.5339L120.908 36.127C121.294 34.596 121.718 33.0649 122.181 31.5339L123.946 26.026Z" fill="#403937"/>
</svg>
